<?xml version="1.0" encoding="UTF-8" standalone="no"?>
<!DOCTYPE svg PUBLIC "-//W3C//DTD SVG 1.1//EN"
 "http://www.w3.org/Graphics/SVG/1.1/DTD/svg11.dtd">
<!-- Generated by graphviz version 2.40.1 (20161225.0304)
 -->
<!-- Title: %3 Pages: 1 -->
<svg width="950pt" height="476pt"
 viewBox="0.00 0.00 950.01 476.00" xmlns="http://www.w3.org/2000/svg" xmlns:xlink="http://www.w3.org/1999/xlink">
<g id="graph0" class="graph" transform="scale(1 1) rotate(0) translate(4 472)">
<title>%3</title>
<polygon fill="#ffffff" stroke="transparent" points="-4,4 -4,-472 946.0103,-472 946.0103,4 -4,4"/>
<!-- [root] aws_instance.TerraInstance -->
<g id="node1" class="node">
<title>[root] aws_instance.TerraInstance</title>
<polygon fill="none" stroke="#000000" points="170.1641,-324 -.0547,-324 -.0547,-288 170.1641,-288 170.1641,-324"/>
<text text-anchor="middle" x="85.0547" y="-301.8" font-family="Times,serif" font-size="14.00" fill="#000000">aws_instance.TerraInstance</text>
</g>
<!-- [root] aws_network_interface.TerraNI -->
<g id="node3" class="node">
<title>[root] aws_network_interface.TerraNI</title>
<polygon fill="none" stroke="#000000" points="314.2609,-252 119.8485,-252 119.8485,-216 314.2609,-216 314.2609,-252"/>
<text text-anchor="middle" x="217.0547" y="-229.8" font-family="Times,serif" font-size="14.00" fill="#000000">aws_network_interface.TerraNI</text>
</g>
<!-- [root] aws_instance.TerraInstance&#45;&gt;[root] aws_network_interface.TerraNI -->
<g id="edge1" class="edge">
<title>[root] aws_instance.TerraInstance&#45;&gt;[root] aws_network_interface.TerraNI</title>
<path fill="none" stroke="#000000" d="M118.3639,-287.8314C135.482,-278.4942 156.5253,-267.016 174.7768,-257.0606"/>
<polygon fill="#000000" stroke="#000000" points="176.6532,-260.024 183.7562,-252.1628 173.3012,-253.8788 176.6532,-260.024"/>
</g>
<!-- [root] aws_internet_gateway.TerraInternetGateway -->
<g id="node2" class="node">
<title>[root] aws_internet_gateway.TerraInternetGateway</title>
<polygon fill="none" stroke="#000000" points="688.428,-252 421.6814,-252 421.6814,-216 688.428,-216 688.428,-252"/>
<text text-anchor="middle" x="555.0547" y="-229.8" font-family="Times,serif" font-size="14.00" fill="#000000">aws_internet_gateway.TerraInternetGateway</text>
</g>
<!-- [root] aws_vpc.TerraVPC -->
<g id="node8" class="node">
<title>[root] aws_vpc.TerraVPC</title>
<polygon fill="none" stroke="#000000" points="529.6016,-108 404.5078,-108 404.5078,-72 529.6016,-72 529.6016,-108"/>
<text text-anchor="middle" x="467.0547" y="-85.8" font-family="Times,serif" font-size="14.00" fill="#000000">aws_vpc.TerraVPC</text>
</g>
<!-- [root] aws_internet_gateway.TerraInternetGateway&#45;&gt;[root] aws_vpc.TerraVPC -->
<g id="edge2" class="edge">
<title>[root] aws_internet_gateway.TerraInternetGateway&#45;&gt;[root] aws_vpc.TerraVPC</title>
<path fill="none" stroke="#000000" d="M543.9094,-215.7623C528.6353,-190.7682 501.0889,-145.6924 483.4574,-116.8409"/>
<polygon fill="#000000" stroke="#000000" points="486.3105,-114.7974 478.1095,-108.0896 480.3375,-118.4475 486.3105,-114.7974"/>
</g>
<!-- [root] aws_security_group.TerraSG -->
<g id="node6" class="node">
<title>[root] aws_security_group.TerraSG</title>
<polygon fill="none" stroke="#000000" points="307.0299,-180 127.0794,-180 127.0794,-144 307.0299,-144 307.0299,-180"/>
<text text-anchor="middle" x="217.0547" y="-157.8" font-family="Times,serif" font-size="14.00" fill="#000000">aws_security_group.TerraSG</text>
</g>
<!-- [root] aws_network_interface.TerraNI&#45;&gt;[root] aws_security_group.TerraSG -->
<g id="edge3" class="edge">
<title>[root] aws_network_interface.TerraNI&#45;&gt;[root] aws_security_group.TerraSG</title>
<path fill="none" stroke="#000000" d="M217.0547,-215.8314C217.0547,-208.131 217.0547,-198.9743 217.0547,-190.4166"/>
<polygon fill="#000000" stroke="#000000" points="220.5548,-190.4132 217.0547,-180.4133 213.5548,-190.4133 220.5548,-190.4132"/>
</g>
<!-- [root] aws_subnet.TerraSubnet -->
<g id="node7" class="node">
<title>[root] aws_subnet.TerraSubnet</title>
<polygon fill="none" stroke="#000000" points="477.5947,-180 324.5146,-180 324.5146,-144 477.5947,-144 477.5947,-180"/>
<text text-anchor="middle" x="401.0547" y="-157.8" font-family="Times,serif" font-size="14.00" fill="#000000">aws_subnet.TerraSubnet</text>
</g>
<!-- [root] aws_network_interface.TerraNI&#45;&gt;[root] aws_subnet.TerraSubnet -->
<g id="edge4" class="edge">
<title>[root] aws_network_interface.TerraNI&#45;&gt;[root] aws_subnet.TerraSubnet</title>
<path fill="none" stroke="#000000" d="M263.4857,-215.8314C288.4227,-206.0734 319.3356,-193.977 345.5373,-183.7242"/>
<polygon fill="#000000" stroke="#000000" points="346.9206,-186.9414 354.9576,-180.038 344.3697,-180.4227 346.9206,-186.9414"/>
</g>
<!-- [root] aws_route.TerraInternetRoute -->
<g id="node4" class="node">
<title>[root] aws_route.TerraInternetRoute</title>
<polygon fill="none" stroke="#000000" points="697.8919,-324 514.2175,-324 514.2175,-288 697.8919,-288 697.8919,-324"/>
<text text-anchor="middle" x="606.0547" y="-301.8" font-family="Times,serif" font-size="14.00" fill="#000000">aws_route.TerraInternetRoute</text>
</g>
<!-- [root] aws_route.TerraInternetRoute&#45;&gt;[root] aws_internet_gateway.TerraInternetGateway -->
<g id="edge5" class="edge">
<title>[root] aws_route.TerraInternetRoute&#45;&gt;[root] aws_internet_gateway.TerraInternetGateway</title>
<path fill="none" stroke="#000000" d="M593.1852,-287.8314C587.3711,-279.6232 580.3851,-269.7606 573.9901,-260.7323"/>
<polygon fill="#000000" stroke="#000000" points="576.7337,-258.5505 568.0974,-252.4133 571.0215,-262.5966 576.7337,-258.5505"/>
</g>
<!-- [root] aws_route_table_association.TerraRouteTableAssoc -->
<g id="node5" class="node">
<title>[root] aws_route_table_association.TerraRouteTableAssoc</title>
<polygon fill="none" stroke="#000000" points="496.3869,-324 187.7225,-324 187.7225,-288 496.3869,-288 496.3869,-324"/>
<text text-anchor="middle" x="342.0547" y="-301.8" font-family="Times,serif" font-size="14.00" fill="#000000">aws_route_table_association.TerraRouteTableAssoc</text>
</g>
<!-- [root] aws_route_table_association.TerraRouteTableAssoc&#45;&gt;[root] aws_subnet.TerraSubnet -->
<g id="edge6" class="edge">
<title>[root] aws_route_table_association.TerraRouteTableAssoc&#45;&gt;[root] aws_subnet.TerraSubnet</title>
<path fill="none" stroke="#000000" d="M349.5271,-287.7623C359.679,-262.9846 377.9171,-218.4714 389.7489,-189.5939"/>
<polygon fill="#000000" stroke="#000000" points="393.0903,-190.67 393.643,-180.0896 386.6129,-188.0161 393.0903,-190.67"/>
</g>
<!-- [root] aws_security_group.TerraSG&#45;&gt;[root] aws_vpc.TerraVPC -->
<g id="edge7" class="edge">
<title>[root] aws_security_group.TerraSG&#45;&gt;[root] aws_vpc.TerraVPC</title>
<path fill="none" stroke="#000000" d="M279.8176,-143.9243C314.5884,-133.9103 357.9851,-121.412 394.2421,-110.97"/>
<polygon fill="#000000" stroke="#000000" points="395.6252,-114.214 404.266,-108.0831 393.6879,-107.4874 395.6252,-114.214"/>
</g>
<!-- [root] var.server_port -->
<g id="node11" class="node">
<title>[root] var.server_port</title>
<ellipse fill="none" stroke="#000000" cx="217.0547" cy="-90" rx="85.986" ry="18"/>
<text text-anchor="middle" x="217.0547" y="-85.8" font-family="Times,serif" font-size="14.00" fill="#000000">[root] var.server_port</text>
</g>
<!-- [root] aws_security_group.TerraSG&#45;&gt;[root] var.server_port -->
<g id="edge8" class="edge">
<title>[root] aws_security_group.TerraSG&#45;&gt;[root] var.server_port</title>
<path fill="none" stroke="#000000" d="M217.0547,-143.8314C217.0547,-136.131 217.0547,-126.9743 217.0547,-118.4166"/>
<polygon fill="#000000" stroke="#000000" points="220.5548,-118.4132 217.0547,-108.4133 213.5548,-118.4133 220.5548,-118.4132"/>
</g>
<!-- [root] aws_subnet.TerraSubnet&#45;&gt;[root] aws_vpc.TerraVPC -->
<g id="edge9" class="edge">
<title>[root] aws_subnet.TerraSubnet&#45;&gt;[root] aws_vpc.TerraVPC</title>
<path fill="none" stroke="#000000" d="M417.7093,-143.8314C425.4661,-135.3694 434.8349,-125.1489 443.3157,-115.8971"/>
<polygon fill="#000000" stroke="#000000" points="445.9986,-118.1499 450.1759,-108.4133 440.8385,-113.4198 445.9986,-118.1499"/>
</g>
<!-- [root] provider.aws -->
<g id="node10" class="node">
<title>[root] provider.aws</title>
<polygon fill="none" stroke="#000000" points="467.0547,-36 388.4463,-18 467.0547,0 545.663,-18 467.0547,-36"/>
<text text-anchor="middle" x="467.0547" y="-13.8" font-family="Times,serif" font-size="14.00" fill="#000000">provider.aws</text>
</g>
<!-- [root] aws_vpc.TerraVPC&#45;&gt;[root] provider.aws -->
<g id="edge10" class="edge">
<title>[root] aws_vpc.TerraVPC&#45;&gt;[root] provider.aws</title>
<path fill="none" stroke="#000000" d="M467.0547,-71.8314C467.0547,-64.131 467.0547,-54.9743 467.0547,-46.4166"/>
<polygon fill="#000000" stroke="#000000" points="470.5548,-46.4132 467.0547,-36.4133 463.5548,-46.4133 470.5548,-46.4132"/>
</g>
<!-- [root] data.aws_route_table.var_route_table -->
<g id="node9" class="node">
<title>[root] data.aws_route_table.var_route_table</title>
<polygon fill="none" stroke="#000000" points="941.9658,-324 716.1435,-324 716.1435,-288 941.9658,-288 941.9658,-324"/>
<text text-anchor="middle" x="829.0547" y="-301.8" font-family="Times,serif" font-size="14.00" fill="#000000">data.aws_route_table.var_route_table</text>
</g>
<!-- [root] data.aws_route_table.var_route_table&#45;&gt;[root] aws_vpc.TerraVPC -->
<g id="edge11" class="edge">
<title>[root] data.aws_route_table.var_route_table&#45;&gt;[root] aws_vpc.TerraVPC</title>
<path fill="none" stroke="#000000" d="M803.7426,-287.6565C777.5225,-268.9147 735.1296,-239.3332 697.0547,-216 634.0933,-177.4157 558.5924,-137.1474 511.7121,-112.8158"/>
<polygon fill="#000000" stroke="#000000" points="513.2197,-109.6551 502.7299,-108.1672 510.0023,-115.8719 513.2197,-109.6551"/>
</g>
<!-- [root] meta.count&#45;boundary (count boundary fixup) -->
<g id="node12" class="node">
<title>[root] meta.count&#45;boundary (count boundary fixup)</title>
<ellipse fill="none" stroke="#000000" cx="317.0547" cy="-378" rx="191.6931" ry="18"/>
<text text-anchor="middle" x="317.0547" y="-373.8" font-family="Times,serif" font-size="14.00" fill="#000000">[root] meta.count&#45;boundary (count boundary fixup)</text>
</g>
<!-- [root] meta.count&#45;boundary (count boundary fixup)&#45;&gt;[root] aws_instance.TerraInstance -->
<g id="edge12" class="edge">
<title>[root] meta.count&#45;boundary (count boundary fixup)&#45;&gt;[root] aws_instance.TerraInstance</title>
<path fill="none" stroke="#000000" d="M261.4849,-360.7542C229.0305,-350.6821 187.8202,-337.8927 153.3911,-327.2079"/>
<polygon fill="#000000" stroke="#000000" points="153.9966,-323.7311 143.4085,-324.1098 151.9218,-330.4166 153.9966,-323.7311"/>
</g>
<!-- [root] meta.count&#45;boundary (count boundary fixup)&#45;&gt;[root] aws_route.TerraInternetRoute -->
<g id="edge13" class="edge">
<title>[root] meta.count&#45;boundary (count boundary fixup)&#45;&gt;[root] aws_route.TerraInternetRoute</title>
<path fill="none" stroke="#000000" d="M384.8123,-361.1192C426.3804,-350.7631 479.8845,-337.4334 523.8639,-326.4766"/>
<polygon fill="#000000" stroke="#000000" points="524.8124,-329.8474 533.6697,-324.0336 523.1201,-323.055 524.8124,-329.8474"/>
</g>
<!-- [root] meta.count&#45;boundary (count boundary fixup)&#45;&gt;[root] aws_route_table_association.TerraRouteTableAssoc -->
<g id="edge14" class="edge">
<title>[root] meta.count&#45;boundary (count boundary fixup)&#45;&gt;[root] aws_route_table_association.TerraRouteTableAssoc</title>
<path fill="none" stroke="#000000" d="M323.3632,-359.8314C326.0664,-352.0463 329.2863,-342.7729 332.2857,-334.1347"/>
<polygon fill="#000000" stroke="#000000" points="335.6874,-335.0081 335.6612,-324.4133 329.0747,-332.7119 335.6874,-335.0081"/>
</g>
<!-- [root] meta.count&#45;boundary (count boundary fixup)&#45;&gt;[root] data.aws_route_table.var_route_table -->
<g id="edge15" class="edge">
<title>[root] meta.count&#45;boundary (count boundary fixup)&#45;&gt;[root] data.aws_route_table.var_route_table</title>
<path fill="none" stroke="#000000" d="M425.9425,-363.1873C501.6591,-352.8247 605.2249,-338.5273 706.0064,-324.1439"/>
<polygon fill="#000000" stroke="#000000" points="706.6596,-327.5862 716.064,-322.7069 705.6694,-320.6566 706.6596,-327.5862"/>
</g>
<!-- [root] provider.aws (close) -->
<g id="node13" class="node">
<title>[root] provider.aws (close)</title>
<ellipse fill="none" stroke="#000000" cx="631.0547" cy="-378" rx="104.3276" ry="18"/>
<text text-anchor="middle" x="631.0547" y="-373.8" font-family="Times,serif" font-size="14.00" fill="#000000">[root] provider.aws (close)</text>
</g>
<!-- [root] provider.aws (close)&#45;&gt;[root] aws_instance.TerraInstance -->
<g id="edge16" class="edge">
<title>[root] provider.aws (close)&#45;&gt;[root] aws_instance.TerraInstance</title>
<path fill="none" stroke="#000000" d="M556.0676,-365.4931C543.3963,-363.541 530.3627,-361.6327 518.0547,-360 371.0835,-340.504 330.6476,-346.0132 180.3675,-324.1281"/>
<polygon fill="#000000" stroke="#000000" points="180.711,-320.641 170.3077,-322.6464 179.6909,-327.5663 180.711,-320.641"/>
</g>
<!-- [root] provider.aws (close)&#45;&gt;[root] aws_route.TerraInternetRoute -->
<g id="edge17" class="edge">
<title>[root] provider.aws (close)&#45;&gt;[root] aws_route.TerraInternetRoute</title>
<path fill="none" stroke="#000000" d="M624.7461,-359.8314C622.043,-352.0463 618.8231,-342.7729 615.8237,-334.1347"/>
<polygon fill="#000000" stroke="#000000" points="619.0347,-332.7119 612.4482,-324.4133 612.422,-335.0081 619.0347,-332.7119"/>
</g>
<!-- [root] provider.aws (close)&#45;&gt;[root] aws_route_table_association.TerraRouteTableAssoc -->
<g id="edge18" class="edge">
<title>[root] provider.aws (close)&#45;&gt;[root] aws_route_table_association.TerraRouteTableAssoc</title>
<path fill="none" stroke="#000000" d="M571.5241,-363.1689C529.0245,-352.5807 471.3159,-338.2035 424.404,-326.5161"/>
<polygon fill="#000000" stroke="#000000" points="425.1162,-323.0866 414.5667,-324.0653 423.424,-329.879 425.1162,-323.0866"/>
</g>
<!-- [root] provider.aws (close)&#45;&gt;[root] data.aws_route_table.var_route_table -->
<g id="edge19" class="edge">
<title>[root] provider.aws (close)&#45;&gt;[root] data.aws_route_table.var_route_table</title>
<path fill="none" stroke="#000000" d="M675.984,-361.6621C703.782,-351.5537 739.7846,-338.4619 769.8891,-327.5147"/>
<polygon fill="#000000" stroke="#000000" points="771.2364,-330.7491 779.4382,-324.0423 768.8442,-324.1706 771.2364,-330.7491"/>
</g>
<!-- [root] root -->
<g id="node14" class="node">
<title>[root] root</title>
<ellipse fill="none" stroke="#000000" cx="474.0547" cy="-450" rx="46.8976" ry="18"/>
<text text-anchor="middle" x="474.0547" y="-445.8" font-family="Times,serif" font-size="14.00" fill="#000000">[root] root</text>
</g>
<!-- [root] root&#45;&gt;[root] meta.count&#45;boundary (count boundary fixup) -->
<g id="edge20" class="edge">
<title>[root] root&#45;&gt;[root] meta.count&#45;boundary (count boundary fixup)</title>
<path fill="none" stroke="#000000" d="M443.7835,-436.1177C421.4039,-425.8544 390.4859,-411.6754 364.7914,-399.892"/>
<polygon fill="#000000" stroke="#000000" points="366.1356,-396.658 355.5868,-395.6708 363.2176,-403.0208 366.1356,-396.658"/>
</g>
<!-- [root] root&#45;&gt;[root] provider.aws (close) -->
<g id="edge21" class="edge">
<title>[root] root&#45;&gt;[root] provider.aws (close)</title>
<path fill="none" stroke="#000000" d="M504.3259,-436.1177C527.1816,-425.6361 558.9431,-411.0703 584.9508,-399.1432"/>
<polygon fill="#000000" stroke="#000000" points="586.6144,-402.2308 594.2452,-394.8808 583.6964,-395.868 586.6144,-402.2308"/>
</g>
</g>
</svg>
